<?xml version="1.0" encoding="utf-8"?>
<!-- Generator: Adobe Illustrator 25.4.1, SVG Export Plug-In . SVG Version: 6.00 Build 0)  -->
<svg version="1.1" id="Layer_1" xmlns="http://www.w3.org/2000/svg" xmlns:xlink="http://www.w3.org/1999/xlink" x="0px" y="0px"
	 viewBox="0 0 512 512" style="enable-background:new 0 0 512 512;" xml:space="preserve">
<style type="text/css">
	.st0{fill:#FFFFFF;}
	.st1{fill:#32EFFA;}
</style>
<g>
	<g>
		
			<rect x="247.5" y="122.1" transform="matrix(-1 -4.281538e-07 4.281538e-07 -1 511.4753 275.5431)" class="st0" width="16.5" height="31.3"/>
		<circle class="st0" cx="256" cy="107.7" r="17.6"/>
	</g>
	<path class="st0" d="M256,153.4c-62.7,0-113.5,50.8-113.5,113.5c0,62.7,113.5,155,113.5,155s113.5-92.3,113.5-155
		C369.5,204.2,318.7,153.4,256,153.4z M256,343.3c-44.5,0-80.6-36.1-80.6-80.6c0-44.5,36.1-80.6,80.6-80.6
		c44.5,0,80.6,36.1,80.6,80.6C336.6,307.3,300.5,343.3,256,343.3z"/>
	<g>
		<g>
			<path class="st0" d="M256.7,197.5c34.8-0.2,63.7,29.8,62.2,64.7c-0.5,12.2-6.9,18.2-19.2,16.9c-8-0.8-16-2.7-23.8-4.6
				c-15.3-3.6-30.4-2.6-45.5,1.1c-4.1,1-8.1,2.2-12.3,2.7c-20,2.7-27.6-5-25.1-24.8C197.2,221.2,223.8,197.8,256.7,197.5z
				 M223.3,239.3c4.1,5.7,7.2,13.7,10.4,13.8c7.5,0.2,7.7-7.7,7.7-13.6c-0.1-5.8-0.4-13.7-7.9-13.6
				C230.4,225.9,227.4,233.6,223.3,239.3z M288.3,240.5c-4.1-6.2-7.3-14.6-10.2-14.5c-7.9,0.3-8.5,8.6-7.6,14.5
				c0.7,4.6,4.7,8.7,7.2,13C280.9,249.6,284.1,245.7,288.3,240.5z"/>
			<circle class="st0" cx="233.6" cy="239.4" r="16.8"/>
			<circle class="st0" cx="276.1" cy="239.8" r="16.8"/>
		</g>
		<circle class="st1" cx="235.1" cy="236.6" r="10.7"/>
		<circle class="st1" cx="276.4" cy="236.9" r="10.7"/>
	</g>
</g>
</svg>
